<?xml version="1.0" encoding="UTF-8"?>
<svg xmlns="http://www.w3.org/2000/svg" xmlns:xlink="http://www.w3.org/1999/xlink" viewBox="0 0 100 100" width="100px" height="100px">
<g id="surface5090153">
<path style=" stroke:none;fill-rule:evenodd;fill:rgb(100%,100%,100%);fill-opacity:1;" d="M 26 10 L 32 28 L 32 40 L 36 40 L 36 28 L 42 10 L 38 10 L 34 22 L 30 10 Z M 48 18 C 45.867188 18 44.820312 18.335938 43.515625 19.40625 C 42.265625 20.460938 41.921875 21.273438 42 24 L 42 34 C 42 35.992188 42.328125 37.304688 43.53125 38.46875 C 44.78125 39.632812 45.960938 40 48 40 C 50.132812 40 51.296875 39.632812 52.5 38.46875 C 53.75 37.351562 54 35.992188 54 34 L 54 24 C 54 22.234375 53.6875 20.5625 52.476562 19.445312 C 51.226562 18.296875 49.9375 18 48 18 Z M 58 18 L 58 36 C 58 37.945312 59.960938 40 62 40 C 64.039062 40 65.117188 38.976562 66 38 L 66 40 L 70 40 L 70 18 L 66 18 L 66 34 C 65.976562 35.367188 64.367188 36 64 36 C 63.585938 36 62 35.914062 62 34 L 62 18 Z M 48 22 C 48.601562 22 50 21.992188 50 24 L 50 34 C 50 35.9375 48.648438 36 48 36 C 47.398438 36 46 35.976562 46 34 L 46 24 C 46 22.367188 46.867188 22 48 22 Z M 50.914062 43.84375 C 40.828125 43.820312 30.75 43.84375 20.664062 44 C 19.304688 44.039062 17.945312 44.234375 16.648438 44.65625 C 15.601562 45.007812 14.601562 45.492188 13.695312 46.125 C 12.625 46.875 11.703125 47.820312 10.984375 48.90625 C 10.476562 49.664062 10.070312 50.492188 9.765625 51.351562 C 9.265625 52.734375 9.039062 54.195312 9 55.65625 C 8.898438 62.21875 8.898438 68.78125 9 75.34375 C 9.039062 76.59375 9.203125 77.828125 9.53125 79.039062 C 10.164062 81.320312 11.375 83.453125 13.140625 85.054688 C 13.648438 85.515625 14.195312 85.929688 14.78125 86.289062 C 15.5 86.734375 16.273438 87.101562 17.078125 87.375 C 18.234375 87.765625 19.445312 87.960938 20.664062 88 C 40.882812 88.375 61.117188 88.3125 81.335938 88 C 82.695312 87.960938 84.054688 87.765625 85.351562 87.34375 C 86.398438 86.992188 87.398438 86.507812 88.304688 85.875 C 89.375 85.125 90.296875 84.179688 91.023438 83.09375 C 91.523438 82.335938 91.929688 81.507812 92.242188 80.648438 C 92.734375 79.265625 92.960938 77.804688 93 76.34375 C 93.101562 69.507812 93.03125 62.664062 93 55.835938 C 92.976562 54.359375 92.765625 52.882812 92.28125 51.492188 C 91.992188 50.625 91.59375 49.789062 91.09375 49.023438 C 90.390625 47.929688 89.476562 46.96875 88.421875 46.210938 C 87.484375 45.53125 86.445312 45.015625 85.351562 44.65625 C 84 44.21875 82.585938 44.023438 81.164062 44 C 71.085938 43.953125 61 43.867188 50.914062 43.84375 Z M 66.1875 47.875 C 71.210938 47.882812 76.234375 47.921875 81.25 48 C 82.046875 48.023438 82.84375 48.117188 83.617188 48.3125 C 84.859375 48.640625 86.03125 49.257812 86.929688 50.179688 C 87.234375 50.492188 87.5 50.828125 87.742188 51.195312 C 88.078125 51.71875 88.34375 52.289062 88.53125 52.882812 C 88.84375 53.804688 88.96875 54.773438 89 55.75 C 89.101562 62.585938 89.101562 69.421875 89 76.25 C 88.96875 77.226562 88.84375 78.195312 88.53125 79.117188 C 88.34375 79.710938 88.078125 80.28125 87.742188 80.804688 C 87.5 81.171875 87.234375 81.507812 86.929688 81.820312 C 86.03125 82.742188 84.859375 83.359375 83.617188 83.6875 C 82.84375 83.882812 82.046875 83.976562 81.25 84 C 61.132812 84.3125 41.007812 84.125 20.882812 84 C 20.023438 83.984375 19.179688 83.859375 18.359375 83.585938 C 17.84375 83.40625 17.34375 83.171875 16.882812 82.882812 C 16.507812 82.65625 16.148438 82.390625 15.828125 82.09375 C 14.59375 80.96875 13.78125 79.460938 13.359375 77.867188 C 13.132812 77.015625 13.03125 76.132812 13 75.25 C 12.898438 68.796875 12.96875 62.335938 13 55.875 C 13.015625 54.890625 13.140625 53.914062 13.4375 52.976562 C 13.625 52.375 13.882812 51.804688 14.21875 51.273438 C 14.460938 50.882812 14.75 50.507812 15.070312 50.179688 C 16 49.226562 17.203125 48.609375 18.484375 48.289062 C 19.3125 48.085938 20.164062 48.007812 21.007812 48 C 36.070312 48 51.132812 47.828125 66.1875 47.875 Z M 22 52 L 22 56 L 26 56 L 26 80 L 30 80 L 30 56 L 34 56 L 34 52 Z M 52 52 L 52 80 L 56 80 L 56 78 C 56.773438 78.898438 57.898438 80.023438 60 80 C 61.242188 79.984375 62.203125 78.984375 62.84375 78.195312 C 63.5 77.40625 64 76.484375 64 75 L 64 63 C 64 61.273438 63.453125 60.101562 62.757812 59.21875 C 62.0625 58.34375 61.046875 57.875 59.75 57.875 C 59.09375 57.875 58.445312 58.0625 57.804688 58.390625 C 57.148438 58.710938 56.460938 59.28125 56 60 L 56 52 Z M 36 58 L 36 76 C 36 77.25 36.539062 77.867188 37 78.46875 C 37.515625 79.125 38.617188 80 39.585938 80 C 40.367188 80 41.210938 80.03125 42.039062 79.5625 C 42.875 79.148438 43.257812 78.875 44 78 L 44 80 L 48 80 L 48 58 L 44 58 L 44 74 C 43.640625 74.46875 43.625 75.984375 42 76 C 40.539062 76.015625 40 74.460938 40 74 L 40 58 Z M 72.398438 58 C 70.5 58 68.742188 58.460938 67.804688 59.421875 C 66.640625 60.617188 66.007812 61.960938 66.007812 63.773438 L 66.007812 73.1875 C 66.007812 75.226562 66.5625 76.8125 67.625 77.96875 C 68.6875 79.125 70.171875 79.6875 72.070312 79.6875 C 74.148438 79.6875 75.734375 79.171875 76.75 78.054688 C 77.828125 76.992188 78 75.367188 78 73.1875 L 78 72 L 74 72 L 74 73 C 74 74.203125 73.882812 75.132812 73.601562 75.460938 C 73.328125 75.828125 72.8125 75.992188 72 76 C 71.265625 76.007812 70.710938 75.804688 70.4375 75.34375 C 70.148438 74.921875 70 74.210938 70 73.09375 L 70 70 L 78 70 L 78 63.773438 C 78 61.773438 77.671875 60.53125 76.640625 59.46875 C 75.632812 58.40625 74.296875 58 72.398438 58 Z M 58 61 C 59.101562 61 60 62 60 64 L 60 74.046875 C 60 75.148438 59.101562 76 58 76 C 56.898438 76 56.015625 75.578125 56 75 L 56 63 C 56.015625 61.992188 56.898438 61 58 61 Z M 72 62 C 73.101562 62 74 62.773438 74 64 L 74 66 L 70 66 L 70 64 C 70.015625 62.929688 70.898438 62 72 62 Z M 72 62 "/>
</g>
</svg>
