<?xml version="1.0" encoding="UTF-8"?>
<svg xmlns="http://www.w3.org/2000/svg" xmlns:xlink="http://www.w3.org/1999/xlink" viewBox="0 0 100 100" width="100px" height="100px">
<g id="surface11310710">
<path style=" stroke:none;fill-rule:nonzero;fill:rgb(100%,100%,100%);fill-opacity:1;" d="M 18 8 C 12.5 8 8 12.5 8 18 L 8 82 C 8 87.5 12.5 92 18 92 L 82 92 C 87.5 92 92 87.5 92 82 L 92 18 C 92 12.5 87.5 8 82 8 Z M 18 12 L 82 12 C 85.335938 12 88 14.664062 88 18 L 88 82 C 88 85.335938 85.335938 88 82 88 L 18 88 C 14.664062 88 12 85.335938 12 82 L 12 18 C 12 14.664062 14.664062 12 18 12 Z M 28 22.023438 C 25.808594 22.023438 23.839844 22.679688 22.378906 23.90625 C 20.917969 25.132812 20.023438 26.96875 20.023438 28.933594 C 20.023438 32.667969 23.261719 35.578125 27.382812 35.867188 C 27.386719 35.867188 27.386719 35.871094 27.390625 35.871094 C 27.585938 35.9375 27.792969 35.972656 28 35.976562 C 32.546875 35.976562 35.976562 32.792969 35.976562 28.933594 C 35.976562 28.898438 35.976562 28.863281 35.972656 28.828125 C 35.769531 25.027344 32.382812 22.023438 28 22.023438 Z M 28 25.976562 C 30.785156 25.976562 31.882812 27.21875 32.003906 28.984375 C 31.980469 30.695312 30.921875 32.023438 28 32.023438 C 25.230469 32.023438 23.976562 30.605469 23.976562 28.933594 C 23.976562 28.097656 24.28125 27.46875 24.921875 26.929688 C 25.5625 26.390625 26.589844 25.976562 28 25.976562 Z M 22 38 C 20.894531 38 20 38.894531 20 40 L 20 78 C 20 79.105469 20.894531 80 22 80 L 34 80 C 35.105469 80 36 79.105469 36 78 L 36 40 C 36 38.894531 35.105469 38 34 38 Z M 40 38 C 38.894531 38 38 38.894531 38 40 L 38 78 C 38 79.105469 38.894531 80 40 80 L 52 80 C 53.105469 80 54 79.105469 54 78 L 54 58 C 54 56.339844 54.453125 54.691406 55.25 53.609375 C 56.046875 52.527344 57.054688 51.878906 58.964844 51.914062 C 60.9375 51.949219 61.980469 52.625 62.769531 53.683594 C 63.558594 54.742188 64 56.332031 64 58 L 64 78 C 64 79.105469 64.894531 80 66 80 L 78 80 C 79.105469 80 80 79.105469 80 78 L 80 56.523438 C 80 50.601562 78.246094 45.910156 75.238281 42.734375 C 72.230469 39.558594 68.046875 38 63.625 38 C 59.421875 38 56.222656 39.410156 54 40.847656 L 54 40 C 54 38.894531 53.105469 38 52 38 Z M 24 42 L 32 42 L 32 76 L 24 76 Z M 42 42 L 50 42 L 50 45.121094 C 50 45.980469 50.550781 46.746094 51.367188 47.015625 C 52.179688 47.289062 53.082031 47.011719 53.597656 46.324219 C 53.597656 46.324219 56.738281 42 63.625 42 C 67.132812 42 70.140625 43.164062 72.335938 45.484375 C 74.53125 47.804688 76 51.375 76 56.523438 L 76 76 L 68 76 L 68 58 C 68 55.667969 67.441406 53.253906 65.980469 51.292969 C 64.519531 49.332031 62.0625 47.964844 59.035156 47.914062 C 55.992188 47.859375 53.496094 49.253906 52.03125 51.238281 C 50.566406 53.222656 50 55.660156 50 58 L 50 76 L 42 76 Z M 42 42 "/>
</g>
</svg>
