<?xml version="1.0" encoding="UTF-8"?>
<svg xmlns="http://www.w3.org/2000/svg" xmlns:xlink="http://www.w3.org/1999/xlink" viewBox="0 0 100 100" width="100px" height="100px">
<g id="surface5089117">
<path style=" stroke:none;fill-rule:nonzero;fill:rgb(100%,100%,100%);fill-opacity:1;" d="M 68.4375 10.9375 C 56.476562 10.9375 46.75 20.664062 46.75 32.625 C 46.75 33.34375 46.929688 34.046875 47 34.75 C 32.210938 33.335938 19.132812 26.210938 10.25 15.3125 C 9.835938 14.789062 9.195312 14.507812 8.523438 14.554688 C 7.859375 14.601562 7.265625 14.984375 6.9375 15.5625 C 5.070312 18.773438 4 22.46875 4 26.4375 C 4 31.242188 5.71875 35.640625 8.375 39.25 C 7.859375 39.023438 7.296875 38.898438 6.8125 38.625 C 6.195312 38.296875 5.453125 38.3125 4.851562 38.671875 C 4.25 39.03125 3.882812 39.679688 3.875 40.375 L 3.875 40.625 C 3.875 47.992188 7.6875 54.390625 13.3125 58.3125 C 13.25 58.304688 13.1875 58.328125 13.125 58.3125 C 12.4375 58.195312 11.742188 58.4375 11.28125 58.960938 C 10.820312 59.484375 10.671875 60.210938 10.875 60.875 C 13.109375 67.820312 18.8125 73.125 25.875 75.0625 C 20.25 78.40625 13.726562 80.375 6.6875 80.375 C 5.164062 80.375 3.703125 80.296875 2.25 80.125 C 1.3125 80 0.414062 80.546875 0.101562 81.4375 C -0.21875 82.328125 0.132812 83.320312 0.9375 83.8125 C 9.960938 89.601562 20.671875 93 32.1875 93 C 50.851562 93 65.492188 85.203125 75.3125 74.0625 C 85.132812 62.921875 90.25 48.453125 90.25 34.9375 C 90.25 34.367188 90.203125 33.8125 90.1875 33.25 C 93.851562 30.445312 97.125 27.15625 99.6875 23.3125 C 100.195312 22.570312 100.140625 21.578125 99.554688 20.890625 C 98.976562 20.203125 98 19.992188 97.1875 20.375 C 96.15625 20.835938 94.953125 20.882812 93.875 21.25 C 95.296875 19.351562 96.515625 17.304688 97.25 15 C 97.5 14.210938 97.226562 13.34375 96.578125 12.828125 C 95.929688 12.320312 95.023438 12.257812 94.3125 12.6875 C 90.898438 14.710938 87.117188 16.132812 83.125 17 C 79.25 13.375 74.148438 10.9375 68.4375 10.9375 Z M 68.4375 14.9375 C 73.539062 14.9375 78.148438 17.117188 81.375 20.5625 C 81.859375 21.0625 82.570312 21.273438 83.25 21.125 C 85.859375 20.609375 88.335938 19.851562 90.75 18.875 C 89.359375 20.75 87.640625 22.351562 85.625 23.5625 C 84.710938 24.007812 84.28125 25.0625 84.617188 26.023438 C 84.945312 26.976562 85.945312 27.53125 86.9375 27.3125 C 88.9375 27.070312 90.71875 26.257812 92.625 25.75 C 90.914062 27.601562 89.039062 29.273438 87 30.75 C 86.445312 31.15625 86.140625 31.8125 86.1875 32.5 C 86.21875 33.3125 86.25 34.117188 86.25 34.9375 C 86.25 47.4375 81.453125 61.007812 72.3125 71.375 C 63.171875 81.742188 49.75 89 32.1875 89 C 24.210938 89 16.679688 87.234375 9.875 84.125 C 18.3125 83.476562 26.09375 80.492188 32.375 75.5625 C 33.03125 75.039062 33.289062 74.164062 33.023438 73.367188 C 32.757812 72.570312 32.023438 72.023438 31.1875 72 C 24.59375 71.882812 19.070312 68.046875 16.125 62.625 C 16.234375 62.625 16.328125 62.625 16.4375 62.625 C 18.414062 62.625 20.367188 62.375 22.1875 61.875 C 23.0625 61.617188 23.664062 60.804688 23.632812 59.890625 C 23.601562 58.976562 22.953125 58.195312 22.0625 58 C 14.945312 56.5625 9.609375 50.765625 8.375 43.5625 C 10.390625 44.257812 12.453125 44.804688 14.6875 44.875 C 15.601562 44.929688 16.429688 44.359375 16.710938 43.492188 C 16.992188 42.625 16.648438 41.671875 15.875 41.1875 C 11.125 38.007812 8 32.59375 8 26.4375 C 8 24.15625 8.59375 22.0625 9.375 20.0625 C 19.375 31.039062 33.375 38.328125 49.1875 39.125 C 49.8125 39.15625 50.421875 38.898438 50.828125 38.421875 C 51.234375 37.9375 51.390625 37.296875 51.25 36.6875 C 50.945312 35.390625 50.75 34.015625 50.75 32.625 C 50.75 22.828125 58.640625 14.9375 68.4375 14.9375 Z M 68.4375 14.9375 "/>
</g>
</svg>
