<?xml version="1.0" encoding="UTF-8"?>
<svg xmlns="http://www.w3.org/2000/svg" xmlns:xlink="http://www.w3.org/1999/xlink" viewBox="0 0 100 100" width="100px" height="100px">
<g id="surface5089775">
<path style=" stroke:none;fill-rule:nonzero;fill:rgb(100%,100%,100%);fill-opacity:1;" d="M 50 4 C 24.617188 4 4 24.617188 4 50 C 4 75.382812 24.617188 96 50 96 C 75.382812 96 96 75.382812 96 50 C 96 24.617188 75.382812 4 50 4 Z M 50 8 C 73.21875 8 92 26.78125 92 50 C 92 73.21875 73.21875 92 50 92 C 26.78125 92 8 73.21875 8 50 C 8 26.78125 26.78125 8 50 8 Z M 32 24 C 28.710938 24 26 26.710938 26 30 C 26 33.289062 28.710938 36 32 36 C 35.289062 36 38 33.289062 38 30 C 38 26.710938 35.289062 24 32 24 Z M 32 28 C 33.128906 28 34 28.871094 34 30 C 34 31.128906 33.128906 32 32 32 C 30.871094 32 30 31.128906 30 30 C 30 28.871094 30.871094 28 32 28 Z M 28 38 C 26.894531 38 26 38.894531 26 40 L 26 70 C 26 71.105469 26.894531 72 28 72 L 36 72 C 37.105469 72 38 71.105469 38 70 L 38 40 C 38 38.894531 37.105469 38 36 38 Z M 44 38 C 42.894531 38 42 38.894531 42 40 L 42 70 C 42 71.105469 42.894531 72 44 72 L 52 72 C 53.105469 72 54 71.105469 54 70 L 54 55 C 54 52.242188 56.242188 50 59 50 C 61.757812 50 64 52.242188 64 55 L 64 70 C 64 71.105469 64.894531 72 66 72 L 74 72 C 75.105469 72 76 71.105469 76 70 L 76 53 C 76 44.738281 69.261719 38 61 38 C 58.425781 38 56.121094 38.832031 54 39.980469 C 53.988281 38.882812 53.097656 38 52 38 Z M 30 42 L 34 42 L 34 68 L 30 68 Z M 46 42 L 50 42 L 50 43.632812 C 50 44.433594 50.480469 45.160156 51.21875 45.472656 C 51.953125 45.785156 52.808594 45.628906 53.386719 45.074219 C 55.367188 43.171875 58.035156 42 61 42 C 67.097656 42 72 46.902344 72 53 L 72 68 L 68 68 L 68 55 C 68 50.058594 63.941406 46 59 46 C 54.058594 46 50 50.058594 50 55 L 50 68 L 46 68 Z M 46 42 "/>
</g>
</svg>
