<?xml version="1.0" encoding="UTF-8"?>
<svg xmlns="http://www.w3.org/2000/svg" xmlns:xlink="http://www.w3.org/1999/xlink" viewBox="0 0 100 100" width="100px" height="100px">
<g id="surface5089554">
<path style=" stroke:none;fill-rule:nonzero;fill:rgb(100%,100%,100%);fill-opacity:1;" d="M 50 6 C 25.722656 6 6 25.722656 6 50 C 6 72.039062 22.253906 90.277344 43.425781 93.457031 L 45.722656 93.804688 L 45.722656 59.132812 L 35.328125 59.132812 L 35.328125 52.09375 L 45.722656 52.09375 L 45.722656 42.746094 C 45.722656 36.988281 47.105469 33.199219 49.390625 30.820312 C 51.675781 28.441406 55.054688 27.242188 59.757812 27.242188 C 63.515625 27.242188 64.980469 27.46875 66.371094 27.640625 L 66.371094 33.402344 L 61.476562 33.402344 C 58.699219 33.402344 56.421875 34.953125 55.238281 37.015625 C 54.054688 39.078125 53.6875 41.542969 53.6875 44.054688 L 53.6875 52.089844 L 65.933594 52.089844 L 64.84375 59.128906 L 53.6875 59.128906 L 53.6875 93.859375 L 55.957031 93.550781 C 77.429688 90.640625 94 72.253906 94 50 C 94 25.722656 74.277344 6 50 6 Z M 50 10 C 72.113281 10 90 27.886719 90 50 C 90 69.460938 76.070312 85.464844 57.6875 89.066406 L 57.6875 63.128906 L 68.273438 63.128906 L 70.597656 48.089844 L 57.6875 48.089844 L 57.6875 44.054688 C 57.6875 41.980469 58.066406 40.121094 58.707031 39.003906 C 59.347656 37.886719 59.964844 37.402344 61.476562 37.402344 L 70.371094 37.402344 L 70.371094 24.019531 L 68.636719 23.785156 C 67.4375 23.621094 64.699219 23.242188 59.757812 23.242188 C 54.351562 23.242188 49.710938 24.714844 46.507812 28.046875 C 43.304688 31.378906 41.722656 36.339844 41.722656 42.746094 L 41.722656 48.09375 L 31.328125 48.09375 L 31.328125 63.132812 L 41.722656 63.132812 L 41.722656 88.941406 C 23.632812 85.109375 10 69.25 10 50 C 10 27.886719 27.886719 10 50 10 Z M 50 10 "/>
</g>
</svg>
